<svg fill="none" height="64" viewBox="0 0 64 64" width="64" xmlns="http://www.w3.org/2000/svg"><rect fill="#fff" height="64" rx="6" width="64"/><path d="m45.712 36.576 2.288-2.288-2.288-2.288-5.712 5.712-13.712-13.712 5.712-5.712-2.288-2.288-2.288 2.288-2.288-2.288-3.424 3.424-2.288-2.288-2.288 2.288 2.288 2.288-3.424 3.424 2.288 2.288-2.288 2.288 2.288 2.288 5.712-5.712 13.712 13.712-5.712 5.712 2.288 2.288 2.288-2.288 2.288 2.288 3.424-3.424 2.288 2.288 2.288-2.288-2.288-2.288 3.424-3.424z" fill="#ff0101"/></svg>